# xmcd
# 
# Track frame offsets:
#     150
#     16200
#     28562
#     38312
#     50300
#     61687
#     81025
#     90400
#     110387
#     124737
#     137550
#     156375
#     169250
#     183600
#     196362
#     211525
#     223300
#     233200
#     244862
#     259450
# 
# Disc length: 3636
# 
# Revision: 2
# Processed by: cddbd v1.5.2PL0 Copyright (c) Steve Scherf et al.
# Submitted via: BonkEnc v1.0beta4
# 
DISCID=0b0e3214
DTITLE=VARIOS - COME SUNDOWN
DYEAR=0
DGENRE=Country
TTITLE0=BILLIE JO SPEARS - BLANKET ON THE GROUND
TTITLE1=DEAN MARTIN - LITTLE OLE´ WINEDRINKER ME
TTITLE2=NEW CHRISTIE MINSTRELS - GREEN, GREEN
TTITLE3=TAMMY WYNETTE - STAND BY YOUR MAN
TTITLE4=JOHNNNY HORTON - BATTLE OF NEW ORLEANS
TTITLE5=NANCY SINATRA and LEE HAZLEWOOD - SUMMERWINE
TTITLE6=ROGER MILLER - CHUG A LUG
TTITLE7=ARLO GUTHRIE - CITY OF NEW ORLEANS
TTITLE8=GLEN CAMPBELL - RHINESTONE COWBOY
TTITLE9=DON WILLIAMS - SOME BROKEN HEARTS NEVER MEND
TTITLE10=KENNY ROGERS and DOLLY PARTON - ISLANDS IN THE STREAM
TTITLE11=JOHNNY HORTON - NORTH TO ALASKA
TTITLE12=DEAN MARTIN - GREEN, GREEN GRASS OF HOME
TTITLE13=NANCY SINATRA and LEE HAZLEWOOD - JACKSON
TTITLE14=SAMMY DAVIS JR. - COME SUNDOWN
TTITLE15=TAMMY WYNETTE - I DON´T WANNA PLAY HOUSE
TTITLE16=KRIS KRISTOFFERSON - HELP ME MAKE IT THROUGH THE NIGHT
TTITLE17=ROGER MILLER - WALKING IN THE SUNSHINE
TTITLE18=BELLAMY BROTHERS - IF I SAID YOU HAVE A BEAUTIFUL BODY
TTITLE19=DAVE DUDLEY - WHERE DID EVERYBODY GO
EXTD=
EXTT0=
EXTT1=
EXTT2=
EXTT3=
EXTT4=
EXTT5=
EXTT6=
EXTT7=
EXTT8=
EXTT9=
EXTT10=
EXTT11=
EXTT12=
EXTT13=
EXTT14=
EXTT15=
EXTT16=
EXTT17=
EXTT18=
EXTT19=
PLAYORDER=
